<svg width="18" height="18" viewBox="0 0 18 18" fill="none" xmlns="http://www.w3.org/2000/svg">
<path fill-rule="evenodd" clip-rule="evenodd" d="M3.30448 6.21927C3 6.95435 3 7.88623 3 9.75V12.75V13.3358C3 14.2267 4.07714 14.6729 4.70711 14.0429L5.85355 12.8964C5.92581 12.8242 5.96194 12.7881 6.00788 12.769C6.05383 12.75 6.10492 12.75 6.20711 12.75L10.5 12.75C10.9643 12.75 11.1965 12.75 11.3921 12.7307C13.2912 12.5437 14.7937 11.0412 14.9807 9.14207C15 8.94651 15 8.71434 15 8.25C15 7.78566 15 7.55349 14.9807 7.35793C14.7937 5.45882 13.2912 3.95631 11.3921 3.76926C11.1965 3.75 10.9643 3.75 10.5 3.75H9C7.13623 3.75 6.20435 3.75 5.46927 4.05448C4.48915 4.46046 3.71046 5.23915 3.30448 6.21927Z" fill="#7E869E" fill-opacity="0.25"/>
<path d="M6.375 7.125L11.625 7.125" stroke="#222222" stroke-linecap="round" stroke-linejoin="round"/>
<path d="M6.375 9.375L10.125 9.375" stroke="#222222" stroke-linecap="round" stroke-linejoin="round"/>
</svg>
