<svg width="480" height="44" viewBox="0 0 480 44" fill="none" xmlns="http://www.w3.org/2000/svg">
<rect width="133.5" height="2" transform="translate(0 21)" fill="#B9B9B9"/>
<path d="M178.032 21.7273C178.032 23.2803 177.748 24.6155 177.18 25.733C176.611 26.8456 175.832 27.7027 174.843 28.304C173.858 28.9006 172.738 29.1989 171.483 29.1989C170.224 29.1989 169.099 28.9006 168.11 28.304C167.125 27.7027 166.349 26.8433 165.78 25.7259C165.212 24.6084 164.928 23.2756 164.928 21.7273C164.928 20.1742 165.212 18.8414 165.78 17.7287C166.349 16.6113 167.125 15.7543 168.11 15.1577C169.099 14.5563 170.224 14.2557 171.483 14.2557C172.738 14.2557 173.858 14.5563 174.843 15.1577C175.832 15.7543 176.611 16.6113 177.18 17.7287C177.748 18.8414 178.032 20.1742 178.032 21.7273ZM175.858 21.7273C175.858 20.5436 175.667 19.5469 175.283 18.7372C174.904 17.9228 174.384 17.3073 173.721 16.8906C173.063 16.4692 172.317 16.2585 171.483 16.2585C170.645 16.2585 169.897 16.4692 169.239 16.8906C168.581 17.3073 168.06 17.9228 167.677 18.7372C167.298 19.5469 167.108 20.5436 167.108 21.7273C167.108 22.911 167.298 23.91 167.677 24.7244C168.06 25.5341 168.581 26.1496 169.239 26.571C169.897 26.9877 170.645 27.196 171.483 27.196C172.317 27.196 173.063 26.9877 173.721 26.571C174.384 26.1496 174.904 25.5341 175.283 24.7244C175.667 23.91 175.858 22.911 175.858 21.7273ZM180.597 29V18.0909H182.65V19.8239H182.764C182.963 19.2367 183.313 18.7751 183.815 18.4389C184.321 18.098 184.894 17.9276 185.534 17.9276C185.666 17.9276 185.822 17.9323 186.002 17.9418C186.187 17.9512 186.331 17.9631 186.436 17.9773V20.0085C186.35 19.9848 186.199 19.9588 185.981 19.9304C185.763 19.8973 185.545 19.8807 185.328 19.8807C184.826 19.8807 184.378 19.9872 183.985 20.2003C183.597 20.4086 183.289 20.6998 183.062 21.0739C182.835 21.4432 182.721 21.8646 182.721 22.3381V29H180.597ZM201.67 18.2756C201.594 17.6032 201.282 17.0824 200.732 16.7131C200.183 16.339 199.492 16.152 198.659 16.152C198.062 16.152 197.546 16.2467 197.11 16.4361C196.675 16.6207 196.336 16.8764 196.095 17.2031C195.858 17.5251 195.74 17.892 195.74 18.304C195.74 18.6496 195.82 18.9479 195.981 19.1989C196.147 19.4498 196.362 19.6605 196.627 19.831C196.897 19.9967 197.186 20.1364 197.494 20.25C197.802 20.3589 198.097 20.4489 198.382 20.5199L199.802 20.8892C200.266 21.0028 200.742 21.1567 201.23 21.3509C201.717 21.545 202.169 21.8007 202.586 22.1179C203.003 22.4351 203.339 22.8281 203.595 23.2969C203.855 23.7656 203.985 24.3267 203.985 24.9801C203.985 25.804 203.772 26.5355 203.346 27.1747C202.925 27.8139 202.311 28.3182 201.507 28.6875C200.706 29.0568 199.738 29.2415 198.602 29.2415C197.513 29.2415 196.57 29.0687 195.775 28.723C194.98 28.3774 194.357 27.8873 193.907 27.2528C193.457 26.6136 193.209 25.8561 193.161 24.9801H195.363C195.406 25.5057 195.576 25.9437 195.874 26.294C196.177 26.6397 196.563 26.8977 197.032 27.0682C197.506 27.2339 198.024 27.3168 198.588 27.3168C199.208 27.3168 199.759 27.2197 200.242 27.0256C200.73 26.8267 201.114 26.5521 201.393 26.2017C201.672 25.8466 201.812 25.4323 201.812 24.9588C201.812 24.5279 201.689 24.1752 201.443 23.9006C201.201 23.6259 200.872 23.3987 200.455 23.2188C200.044 23.0388 199.577 22.8802 199.056 22.7429L197.338 22.2741C196.173 21.9569 195.249 21.4905 194.568 20.875C193.891 20.2595 193.552 19.4451 193.552 18.4318C193.552 17.5937 193.779 16.8622 194.234 16.2372C194.688 15.6122 195.304 15.1269 196.08 14.7812C196.857 14.4309 197.733 14.2557 198.708 14.2557C199.693 14.2557 200.562 14.4285 201.315 14.7741C202.072 15.1198 202.669 15.5956 203.105 16.2017C203.54 16.803 203.767 17.4943 203.786 18.2756H201.67ZM206.437 29V18.0909H208.561V29H206.437ZM207.51 16.4077C207.14 16.4077 206.823 16.2846 206.558 16.0384C206.298 15.7874 206.167 15.4891 206.167 15.1435C206.167 14.7931 206.298 14.4948 206.558 14.2486C206.823 13.9976 207.14 13.8722 207.51 13.8722C207.879 13.8722 208.194 13.9976 208.454 14.2486C208.72 14.4948 208.852 14.7931 208.852 15.1435C208.852 15.4891 208.72 15.7874 208.454 16.0384C208.194 16.2846 207.879 16.4077 207.51 16.4077ZM215.992 33.3182C215.125 33.3182 214.379 33.2045 213.754 32.9773C213.134 32.75 212.628 32.4493 212.235 32.0753C211.842 31.7012 211.548 31.2917 211.354 30.8466L213.179 30.0938C213.307 30.3021 213.477 30.5223 213.691 30.7543C213.908 30.991 214.202 31.1922 214.571 31.358C214.945 31.5237 215.426 31.6065 216.013 31.6065C216.818 31.6065 217.483 31.41 218.009 31.017C218.534 30.6288 218.797 30.0085 218.797 29.1562V27.0114H218.662C218.534 27.2434 218.35 27.5014 218.108 27.7855C217.871 28.0696 217.545 28.3158 217.128 28.5241C216.711 28.7325 216.169 28.8366 215.502 28.8366C214.64 28.8366 213.863 28.6354 213.172 28.233C212.485 27.8258 211.941 27.2268 211.539 26.4361C211.141 25.6406 210.942 24.6629 210.942 23.5028C210.942 22.3428 211.138 21.3485 211.531 20.5199C211.929 19.6913 212.474 19.0568 213.165 18.6165C213.856 18.1714 214.64 17.9489 215.516 17.9489C216.193 17.9489 216.74 18.0625 217.156 18.2898C217.573 18.5123 217.897 18.7727 218.129 19.071C218.366 19.3693 218.548 19.6321 218.676 19.8594H218.833V18.0909H220.914V29.2415C220.914 30.179 220.696 30.9484 220.26 31.5497C219.825 32.151 219.235 32.5961 218.492 32.8849C217.753 33.1738 216.92 33.3182 215.992 33.3182ZM215.97 27.0753C216.581 27.0753 217.097 26.9332 217.519 26.6491C217.945 26.3603 218.267 25.9484 218.485 25.4134C218.707 24.8736 218.818 24.2273 218.818 23.4744C218.818 22.7405 218.709 22.0942 218.492 21.5355C218.274 20.9768 217.954 20.5412 217.533 20.2287C217.111 19.9115 216.591 19.7528 215.97 19.7528C215.331 19.7528 214.798 19.9186 214.372 20.25C213.946 20.5767 213.624 21.0218 213.406 21.5852C213.193 22.1487 213.087 22.7784 213.087 23.4744C213.087 24.1894 213.196 24.8168 213.414 25.3565C213.631 25.8963 213.953 26.3177 214.379 26.6207C214.81 26.9238 215.341 27.0753 215.97 27.0753ZM225.885 22.5227V29H223.762V18.0909H225.8V19.8665H225.935C226.186 19.2888 226.579 18.8248 227.114 18.4744C227.654 18.1241 228.333 17.9489 229.152 17.9489C229.896 17.9489 230.547 18.1051 231.105 18.4176C231.664 18.7254 232.097 19.1847 232.405 19.7955C232.713 20.4062 232.867 21.1615 232.867 22.0611V29H230.743V22.3168C230.743 21.526 230.537 20.9081 230.125 20.4631C229.713 20.0133 229.147 19.7884 228.428 19.7884C227.935 19.7884 227.497 19.8949 227.114 20.108C226.735 20.321 226.434 20.6335 226.212 21.0455C225.994 21.4527 225.885 21.9451 225.885 22.5227ZM250.532 14.4545H252.733V24.0213C252.733 25.0393 252.494 25.9413 252.016 26.7273C251.538 27.5085 250.866 28.1241 249.999 28.5739C249.133 29.0189 248.117 29.2415 246.952 29.2415C245.792 29.2415 244.779 29.0189 243.912 28.5739C243.046 28.1241 242.374 27.5085 241.895 26.7273C241.417 25.9413 241.178 25.0393 241.178 24.0213V14.4545H243.373V23.8438C243.373 24.5019 243.517 25.0866 243.806 25.598C244.099 26.1094 244.514 26.5118 245.049 26.8054C245.584 27.0942 246.218 27.2386 246.952 27.2386C247.691 27.2386 248.328 27.0942 248.863 26.8054C249.403 26.5118 249.814 26.1094 250.099 25.598C250.387 25.0866 250.532 24.5019 250.532 23.8438V14.4545ZM255.754 33.0909V18.0909H257.828V19.8594H258.005C258.128 19.6321 258.306 19.3693 258.538 19.071C258.77 18.7727 259.092 18.5123 259.504 18.2898C259.916 18.0625 260.46 17.9489 261.137 17.9489C262.018 17.9489 262.804 18.1714 263.495 18.6165C264.186 19.0616 264.729 19.7031 265.122 20.5412C265.519 21.3793 265.718 22.3878 265.718 23.5668C265.718 24.7457 265.522 25.7566 265.129 26.5994C264.736 27.4375 264.196 28.0838 263.509 28.5384C262.823 28.9882 262.039 29.2131 261.159 29.2131C260.496 29.2131 259.954 29.1018 259.532 28.8793C259.115 28.6567 258.789 28.3963 258.552 28.098C258.315 27.7997 258.133 27.5346 258.005 27.3026H257.877V33.0909H255.754ZM257.835 23.5455C257.835 24.3125 257.946 24.9848 258.169 25.5625C258.391 26.1402 258.713 26.5923 259.134 26.919C259.556 27.241 260.072 27.402 260.683 27.402C261.317 27.402 261.847 27.2339 262.274 26.8977C262.7 26.5568 263.022 26.0952 263.24 25.5128C263.462 24.9304 263.573 24.2746 263.573 23.5455C263.573 22.8258 263.464 22.1795 263.247 21.6065C263.034 21.0336 262.712 20.5814 262.281 20.25C261.855 19.9186 261.322 19.7528 260.683 19.7528C260.067 19.7528 259.546 19.9115 259.12 20.2287C258.699 20.5459 258.379 20.9886 258.161 21.5568C257.944 22.125 257.835 22.7879 257.835 23.5455ZM276.409 29L272.375 14.4545H274.683L277.517 25.7188H277.652L280.599 14.4545H282.886L285.834 25.7259H285.969L288.795 14.4545H291.111L287.069 29H284.861L281.8 18.1051H281.686L278.625 29H276.409ZM292.941 29V18.0909H295.065V29H292.941ZM294.014 16.4077C293.644 16.4077 293.327 16.2846 293.062 16.0384C292.802 15.7874 292.671 15.4891 292.671 15.1435C292.671 14.7931 292.802 14.4948 293.062 14.2486C293.327 13.9976 293.644 13.8722 294.014 13.8722C294.383 13.8722 294.698 13.9976 294.958 14.2486C295.223 14.4948 295.356 14.7931 295.356 15.1435C295.356 15.4891 295.223 15.7874 294.958 16.0384C294.698 16.2846 294.383 16.4077 294.014 16.4077ZM303.014 18.0909V19.7955H297.055V18.0909H303.014ZM298.653 15.4773H300.777V25.7969C300.777 26.2088 300.838 26.5189 300.961 26.7273C301.085 26.9309 301.243 27.0705 301.437 27.1463C301.636 27.2173 301.852 27.2528 302.084 27.2528C302.254 27.2528 302.403 27.241 302.531 27.2173C302.659 27.1937 302.758 27.1747 302.829 27.1605L303.213 28.9148C303.09 28.9621 302.915 29.0095 302.687 29.0568C302.46 29.1089 302.176 29.1373 301.835 29.142C301.276 29.1515 300.756 29.0521 300.273 28.8438C299.79 28.6354 299.399 28.3134 299.101 27.8778C298.802 27.4422 298.653 26.8954 298.653 26.2372V15.4773ZM307.721 22.5227V29H305.597V14.4545H307.693V19.8665H307.828C308.083 19.2794 308.474 18.813 308.999 18.4673C309.525 18.1217 310.212 17.9489 311.059 17.9489C311.807 17.9489 312.461 18.1027 313.019 18.4105C313.583 18.7183 314.018 19.1776 314.326 19.7884C314.639 20.3944 314.795 21.152 314.795 22.0611V29H312.671V22.3168C312.671 21.5166 312.465 20.8963 312.053 20.456C311.642 20.0109 311.069 19.7884 310.335 19.7884C309.833 19.7884 309.383 19.8949 308.985 20.108C308.592 20.321 308.282 20.6335 308.055 21.0455C307.832 21.4527 307.721 21.9451 307.721 22.5227Z" fill="#888888"/>
<rect width="133.5" height="2" transform="translate(346.5 21)" fill="#B9B9B9"/>
</svg>
