<?xml version="1.0" encoding="UTF-8"?>
<svg id="Layer_2" data-name="Layer 2" xmlns="http://www.w3.org/2000/svg" viewBox="0 0 1164.32 1043">
  <defs>
    <style>
      .cls-1 {
        fill: #fe192f;
        stroke-width: 0px;
      }
    </style>
  </defs>
  <path class="cls-1" d="M586,807c-3.41,1.96-16.83,6.04-27.5,2.5-1.95-.65-7.63-2.07-10-7-2.48-5.17-.53-12.34,5-18,49.39-28.57,98.72-57.24,148-86,37.03-21.61,72.66-45.8,111-65,9.59-4.8,57.71-28.69,105-65,9.75-7.49,29.97-23.57,37-50,4.32-16.23,1.58-28.55,1-31-4.34-18.36-16.57-29.27-23-35-29.78-26.55-69.62-24.56-82-24-16.66.75-29.67,4.85-55,13-31.59,10.17-46.52,17.93-82,33-50.45,21.43-51.92,19.18-93,37-50.99,22.12-80.12,40.52-81,39-1.25-2.16,58.28-38.93,94-61,31.96-19.74,55.67-33.98,64-39,80.14-48.27,87.52-56.8,146-92,13.47-8.11,26.64-16.71,40-25,35.89-22.28,43.22-26.42,53-37,8.94-9.67,22.07-23.85,25-46,2.67-20.2-4.57-36.14-7-41-15.21-30.44-50.28-44.34-79-44-19.83.23-34.66,7.35-40,10-94.33,46.83-141.5,70.25-198,106-49.67,31.42-89.44,51.95-169,93-16.55,8.54-75.19,45.63-158,76-41.43,15.2-47.13,13.71-48,12-1.98-3.9,16.7-17.67,78-58,46.59-30.65,69.84-46.05,104-67,43.11-26.45,82.26-58.96,125-86,3.44-2.18,15.86-9.99,25-25,4.65-7.64,12.74-20.91,9-37-4.44-19.1-22.17-27.68-25-29-17.9-8.32-37.42-.46-46,3-36.76,14.82-142.31,64.88-283,136-5.14,1.91-16.11,5.05-28,1-4.48-1.53-9.77-3.33-12-8-3.84-8.03,4.07-18.87,10-27,1.96-2.69,10.09-13.56,30-28,2.96-2.15,13.59-9.75,29-18,6.02-3.23,18.57-9.65,34-17,10.4-4.95,16.72-7.76,22-15,2.25-3.08,7.24-9.92,5-17-2.17-6.86-9.75-9.56-11-10-7.89-2.81-15.67-.04-19.5,1.5-52.02,20.95-148,99-148,99-19.64,15.98-37.9,29.52-42,53-1.09,6.26-4.8,22.54,5,37,7.14,10.53,17.83,14.48,25,17,20.83,7.31,42.52,4.6,80-7,21.9-6.78,51.83-14.85,85.5-31.5-20.55,8.98-109,65-177.5,113.5-14.62,10.35-15.64,26.82-17,39-3.01,27.01,10.71,53.89,30,70,20.88,17.44,44.55,19.17,56,20,18.51,1.35,32.72-2.24,43-5,43.72-11.76,81.04-24.93,111-38,36.54-15.93,56.12-26.57,57-25,1.38,2.46-44.31,32.91-118,86-27.61,19.89-48.55,35.4-60,64-3.93,9.81-13.43,33.55-3,57,9.74,21.88,31.14,30.7,44,36,10.26,4.23,30.05,10.2,63,6,33.27-4.24,56.63-16.55,102-41,32.69-17.62,65.78-34.52,98-53,94.82-54.38,198.62-100.04,202-94,2.89,5.15-66.36,49.79-121,85-49.74,32.06-74.6,48.08-92,58-30.91,17.62-53.86,28.89-84,54-27.6,23-39.18,39.23-45,58-2.95,9.52-9.14,29.47,0,49,11.84,25.31,41.18,32.39,52,35,34.63,8.36,61.95-9.98,96-23,102-39,56-23,144-57,43.61-16.85,93.62-42.48,99-34,2.57,4.05-7.83,11.31-9,29-.36,5.38-1.49,22.47,10,30,9.26,6.07,22.52,1.02,30-2,69.87-28.19,116-60,116-60,13.7-9.44,35.23-24.85,63-23,3.39.23,4.16,2.66,6,3-.34,1.56.76,8.17,7,16,1.06,1.32,4.98,8.5,11,8,8.64-.71,13.23-14.63,15-20,3.11-9.42,8.04-24.39-1-36-1.84-2.36-9.3-10.73-37-9-31.36,1.96-53.92,14.69-68.5,22.5-21.22,11.37-52.1,26.53-93,42,4.09-9.38,8.7-23.7,7-39-.58-5.22-1.7-8.81-4-12-1.26-1.75-5.83-7.48-20-10-24.84-4.41-49,7-49,7"/>
</svg>